<mxfile host="65bd71144e">
    <diagram id="rU-xtE7swLQ4DO77qGND" name="Страница 1">
        <mxGraphModel dx="1047" dy="787" grid="1" gridSize="10" guides="1" tooltips="1" connect="1" arrows="1" fold="1" page="1" pageScale="1" pageWidth="827" pageHeight="1169" background="none" math="0" shadow="0">
            <root>
                <mxCell id="0"/>
                <mxCell id="1" parent="0"/>
                <mxCell id="2" value="" style="rounded=0;whiteSpace=wrap;html=1;strokeColor=#0D1117;fillColor=#0D1117;" parent="1" vertex="1">
                    <mxGeometry x="50" y="50" width="540" height="400" as="geometry"/>
                </mxCell>
                <mxCell id="3" value="" style="rounded=0;whiteSpace=wrap;html=1;strokeWidth=3;strokeColor=#E6E6E6;fillColor=#0D1117;" parent="1" vertex="1">
                    <mxGeometry x="230" y="200" width="220" height="120" as="geometry"/>
                </mxCell>
                <mxCell id="8" value="&lt;font style=&quot;background-color: rgb(13, 17, 23);&quot; color=&quot;#e6e6e6&quot;&gt;port&lt;/font&gt;" style="ellipse;whiteSpace=wrap;html=1;aspect=fixed;strokeWidth=3;fontSize=20;strokeColor=#E6E6E6;fillColor=#0D1117;" parent="1" vertex="1">
                    <mxGeometry x="201" y="236.25" width="47.5" height="47.5" as="geometry"/>
                </mxCell>
                <mxCell id="11" value="&lt;font style=&quot;background-color: rgb(13, 17, 23);&quot; color=&quot;#e6e6e6&quot;&gt;port&lt;/font&gt;" style="ellipse;whiteSpace=wrap;html=1;aspect=fixed;strokeWidth=3;fontSize=20;strokeColor=#E6E6E6;fillColor=#0D1117;" parent="1" vertex="1">
                    <mxGeometry x="429" y="241.5" width="47.5" height="47.5" as="geometry"/>
                </mxCell>
                <mxCell id="12" value="&lt;font style=&quot;background-color: rgb(13, 17, 23);&quot; color=&quot;#e6e6e6&quot;&gt;port&lt;/font&gt;" style="ellipse;whiteSpace=wrap;html=1;aspect=fixed;strokeWidth=3;fontSize=20;strokeColor=#E6E6E6;fillColor=#0D1117;" parent="1" vertex="1">
                    <mxGeometry x="316.25" y="307" width="47.5" height="47.5" as="geometry"/>
                </mxCell>
                <mxCell id="13" value="&lt;font color=&quot;#e6e6e6&quot; style=&quot;background-color: rgb(13, 17, 23);&quot;&gt;port&lt;/font&gt;" style="ellipse;whiteSpace=wrap;html=1;aspect=fixed;strokeWidth=3;fontSize=20;strokeColor=#E6E6E6;fillColor=#0D1117;" parent="1" vertex="1">
                    <mxGeometry x="316.25" y="174" width="47.5" height="47.5" as="geometry"/>
                </mxCell>
                <mxCell id="17" value="&lt;font style=&quot;background-color: rgb(13, 17, 23);&quot; color=&quot;#e6e6e6&quot;&gt;DB&lt;/font&gt;" style="shape=cylinder3;whiteSpace=wrap;html=1;boundedLbl=1;backgroundOutline=1;size=15;strokeWidth=3;fontSize=20;strokeColor=#E6E6E6;fillColor=#0D1117;" parent="1" vertex="1">
                    <mxGeometry x="523" y="225.25" width="60" height="80" as="geometry"/>
                </mxCell>
                <mxCell id="20" value="" style="endArrow=classic;startArrow=classic;html=1;fontSize=20;strokeWidth=3;exitX=0.875;exitY=0.5;exitDx=0;exitDy=0;entryX=0;entryY=0.5;entryDx=0;entryDy=0;strokeColor=#E6E6E6;exitPerimeter=0;" parent="1" source="28" target="8" edge="1">
                    <mxGeometry width="50" height="50" relative="1" as="geometry">
                        <mxPoint x="160" y="259.5" as="sourcePoint"/>
                        <mxPoint x="470" y="380" as="targetPoint"/>
                    </mxGeometry>
                </mxCell>
                <mxCell id="21" value="" style="endArrow=classic;startArrow=classic;html=1;fontSize=20;strokeWidth=3;exitX=1;exitY=0.5;exitDx=0;exitDy=0;strokeColor=#E6E6E6;entryX=0;entryY=0.5;entryDx=0;entryDy=0;entryPerimeter=0;" parent="1" source="11" target="17" edge="1">
                    <mxGeometry width="50" height="50" relative="1" as="geometry">
                        <mxPoint x="170" y="267.4999999999999" as="sourcePoint"/>
                        <mxPoint x="510" y="270" as="targetPoint"/>
                    </mxGeometry>
                </mxCell>
                <mxCell id="22" value="&lt;font style=&quot;background-color: rgb(13, 17, 23);&quot; color=&quot;#e6e6e6&quot;&gt;&lt;br&gt;cfg&lt;/font&gt;" style="shape=note;whiteSpace=wrap;html=1;backgroundOutline=1;darkOpacity=0.05;strokeWidth=3;fontSize=20;strokeColor=#E6E6E6;fillColor=#0D1117;" parent="1" vertex="1">
                    <mxGeometry x="310" y="62" width="60" height="80" as="geometry"/>
                </mxCell>
                <mxCell id="23" value="" style="endArrow=classic;html=1;strokeWidth=3;fontSize=20;exitX=0.5;exitY=1;exitDx=0;exitDy=0;exitPerimeter=0;entryX=0.5;entryY=0;entryDx=0;entryDy=0;strokeColor=#E6E6E6;" parent="1" source="22" target="13" edge="1">
                    <mxGeometry width="50" height="50" relative="1" as="geometry">
                        <mxPoint x="400" y="290" as="sourcePoint"/>
                        <mxPoint x="450" y="240" as="targetPoint"/>
                    </mxGeometry>
                </mxCell>
                <mxCell id="24" value="" style="endArrow=classic;html=1;strokeWidth=3;fontSize=20;exitX=0.5;exitY=1;exitDx=0;exitDy=0;strokeColor=#E6E6E6;" parent="1" source="12" edge="1">
                    <mxGeometry width="50" height="50" relative="1" as="geometry">
                        <mxPoint x="350" y="139.9999999999999" as="sourcePoint"/>
                        <mxPoint x="340" y="380" as="targetPoint"/>
                    </mxGeometry>
                </mxCell>
                <mxCell id="29" value="" style="shape=document;whiteSpace=wrap;html=1;boundedLbl=1;labelBackgroundColor=#0D1117;strokeColor=#E6E6E6;fontColor=#E6E6E6;fillColor=#0D1117;strokeWidth=3;" parent="1" vertex="1">
                    <mxGeometry x="290" y="380" width="100" height="60" as="geometry"/>
                </mxCell>
                <mxCell id="28" value="&lt;font style=&quot;background-color: rgb(13, 17, 23);&quot; color=&quot;#e6e6e6&quot;&gt;&amp;nbsp;HTTP&lt;/font&gt;" style="ellipse;shape=cloud;whiteSpace=wrap;html=1;strokeWidth=3;fontSize=20;strokeColor=#E6E6E6;fillColor=#0D1117;" parent="1" vertex="1">
                    <mxGeometry x="46" y="220" width="120" height="80" as="geometry"/>
                </mxCell>
                <mxCell id="26" value="&lt;font style=&quot;background-color: rgb(13, 17, 23);&quot; color=&quot;#e6e6e6&quot;&gt;logs&lt;/font&gt;" style="text;html=1;strokeColor=none;fillColor=none;align=center;verticalAlign=middle;whiteSpace=wrap;rounded=0;strokeWidth=3;fontSize=20;" parent="1" vertex="1">
                    <mxGeometry x="310" y="385" width="60" height="30" as="geometry"/>
                </mxCell>
                <mxCell id="4" value="&lt;font color=&quot;#e6e6e6&quot; style=&quot;font-size: 20px; background-color: rgb(13, 17, 23);&quot;&gt;Domain zone&lt;/font&gt;" style="text;html=1;strokeColor=#E6E6E6;fillColor=#0D1117;align=center;verticalAlign=middle;whiteSpace=wrap;rounded=0;strokeWidth=1;dashed=1;" parent="1" vertex="1">
                    <mxGeometry x="277" y="245.5" width="130" height="35" as="geometry"/>
                </mxCell>
                <mxCell id="31" value="&lt;font color=&quot;#e6e6e6&quot; style=&quot;font-size: 20px; background-color: rgb(13, 17, 23);&quot;&gt;Infractructure&lt;/font&gt;" style="text;html=1;strokeColor=#E6E6E6;fillColor=#0D1117;align=center;verticalAlign=middle;whiteSpace=wrap;rounded=0;strokeWidth=1;dashed=1;" parent="1" vertex="1">
                    <mxGeometry x="100" y="107" width="130" height="35" as="geometry"/>
                </mxCell>
            </root>
        </mxGraphModel>
    </diagram>
</mxfile>